<?xml version="1.0" standalone="no"?>
<!DOCTYPE svg PUBLIC "-//W3C//DTD SVG 20010904//EN"
 "http://www.w3.org/TR/2001/REC-SVG-20010904/DTD/svg10.dtd">
<svg version="1.0" xmlns="http://www.w3.org/2000/svg"
 width="260.000000pt" height="260.000000pt" viewBox="0 0 260.000000 260.000000"
 preserveAspectRatio="xMidYMid meet">
<metadata>
Created by potrace 1.11, written by Peter Selinger 2001-2013
</metadata>
<g transform="translate(0.000000,260.000000) scale(0.100000,-0.100000)"
fill="#000000" stroke="none">
<path d="M1060 2137 l0 -53 33 3 c17 1 76 4 130 6 l97 4 0 -731 c0 -821 0
-820 -66 -886 -31 -32 -39 -35 -93 -35 -78 0 -100 19 -94 79 6 48 -15 99 -46
116 -11 5 -38 10 -61 10 -105 0 -146 -153 -62 -233 120 -115 421 -92 519 41
41 56 76 138 96 227 18 83 20 138 26 685 l6 595 25 49 c31 62 64 87 124 93 46
6 46 6 46 44 l0 39 -340 0 -340 0 0 -53z"/>
</g>
</svg>
